{
  "accessors": [
    {
      "bufferView": 2,
      "componentType": 5126,
      "count": 8042,
      "max": [
        7.665903091430664,
        24.753047943115234,
        1.0267937183380127
      ],
      "min": [
        -4.171731948852539,
        -1.1821694374084473,
        -79.64183807373047
      ],
      "type": "VEC3"
    },
    {
      "bufferView": 2,
      "byteOffset": 96504,
      "componentType": 5126,
      "count": 8042,
      "max": [
        1.0,
        1.0,
        1.0
      ],
      "min": [
        -1.0,
        -1.0,
        -1.0
      ],
      "type": "VEC3"
    },
    {
      "bufferView": 1,
      "componentType": 5126,
      "count": 8042,
      "max": [
        0.875,
        1.0
      ],
      "min": [
        0.0,
        0.0
      ],
      "type": "VEC2"
    },
    {
      "bufferView": 1,
      "byteOffset": 64336,
      "componentType": 5126,
      "count": 8042,
      "max": [
        0.0,
        0.0
      ],
      "min": [
        0.0,
        0.0
      ],
      "type": "VEC2"
    },
    {
      "bufferView": 0,
      "componentType": 5125,
      "count": 12807,
      "type": "SCALAR"
    },
    {
      "bufferView": 2,
      "byteOffset": 193008,
      "componentType": 5126,
      "count": 1523,
      "max": [
        5.180296421051025,
        21.007476806640625,
        -9.362871170043945
      ],
      "min": [
        -0.876789927482605,
        5.4992804527282715,
        -80.93966674804688
      ],
      "type": "VEC3"
    },
    {
      "bufferView": 2,
      "byteOffset": 211284,
      "componentType": 5126,
      "count": 1523,
      "max": [
        0.9941515326499939,
        0.9874210953712463,
        1.0
      ],
      "min": [
        -0.9995056390762329,
        -0.993662416934967,
        -0.9999991655349731
      ],
      "type": "VEC3"
    },
    {
      "bufferView": 1,
      "byteOffset": 128672,
      "componentType": 5126,
      "count": 1523,
      "max": [
        0.0,
        0.0
      ],
      "min": [
        0.0,
        0.0
      ],
      "type": "VEC2"
    },
    {
      "bufferView": 1,
      "byteOffset": 140856,
      "componentType": 5126,
      "count": 1523,
      "max": [
        0.0,
        0.0
      ],
      "min": [
        0.0,
        0.0
      ],
      "type": "VEC2"
    },
    {
      "bufferView": 0,
      "byteOffset": 51228,
      "componentType": 5125,
      "count": 2385,
      "type": "SCALAR"
    },
    {
      "bufferView": 2,
      "byteOffset": 229560,
      "componentType": 5126,
      "count": 4132,
      "max": [
        7.510372161865234,
        23.351058959960938,
        0.3950195014476776
      ],
      "min": [
        -4.114066123962402,
        -0.05584995448589325,
        -89.23365783691406
      ],
      "type": "VEC3"
    },
    {
      "bufferView": 2,
      "byteOffset": 279144,
      "componentType": 5126,
      "count": 4132,
      "max": [
        0.9989793300628662,
        0.995381772518158,
        0.9965415000915527
      ],
      "min": [
        -0.9984252452850342,
        -0.989466667175293,
        -0.0607832595705986
      ],
      "type": "VEC3"
    },
    {
      "bufferView": 1,
      "byteOffset": 153040,
      "componentType": 5126,
      "count": 4132,
      "max": [
        1.0000019073486328,
        1.0000014305114746
      ],
      "min": [
        -3.680579084175406e-06,
        0.0
      ],
      "type": "VEC2"
    },
    {
      "bufferView": 1,
      "byteOffset": 186096,
      "componentType": 5126,
      "count": 4132,
      "max": [
        0.0,
        0.0
      ],
      "min": [
        0.0,
        0.0
      ],
      "type": "VEC2"
    },
    {
      "bufferView": 0,
      "byteOffset": 60768,
      "componentType": 5125,
      "count": 6261,
      "type": "SCALAR"
    },
    {
      "bufferView": 2,
      "byteOffset": 328728,
      "componentType": 5126,
      "count": 55296,
      "max": [
        3.6679656505584717,
        17.964630126953125,
        -7.712860107421875
      ],
      "min": [
        0.6365140676498413,
        8.541189193725586,
        -71.97010803222656
      ],
      "type": "VEC3"
    },
    {
      "bufferView": 2,
      "byteOffset": 992280,
      "componentType": 5126,
      "count": 55296,
      "max": [
        -0.5330541729927063,
        0.17917588353157043,
        0.09732779115438461
      ],
      "min": [
        -0.9999979138374329,
        -0.8460615873336792,
        -0.09503591805696487
      ],
      "type": "VEC3"
    },
    {
      "bufferView": 1,
      "byteOffset": 219152,
      "componentType": 5126,
      "count": 55296,
      "max": [
        1.0,
        1.0
      ],
      "min": [
        0.0,
        0.0
      ],
      "type": "VEC2"
    },
    {
      "bufferView": 1,
      "byteOffset": 661520,
      "componentType": 5126,
      "count": 55296,
      "max": [
        3.443603277206421,
        3.443603277206421
      ],
      "min": [
        -2.443603277206421,
        -2.443603277206421
      ],
      "type": "VEC2"
    },
    {
      "bufferView": 0,
      "byteOffset": 85812,
      "componentType": 5125,
      "count": 82944,
      "type": "SCALAR"
    }
  ],
  "asset": {
    "extras": {
      "author": "KejbisiDev (https://sketchfab.com/KejbisiDev)",
      "license": "CC-BY-4.0 (http://creativecommons.org/licenses/by/4.0/)",
      "source": "https://sketchfab.com/3d-models/portal-300c5efaafdc45c888d2f26339d8e942",
      "title": "Portal"
    },
    "generator": "Sketchfab-15.55.0",
    "version": "2.0"
  },
  "bufferViews": [
    {
      "buffer": 0,
      "byteLength": 417588,
      "name": "floatBufferViews",
      "target": 34963
    },
    {
      "buffer": 0,
      "byteLength": 1103888,
      "byteOffset": 417588,
      "byteStride": 8,
      "name": "floatBufferViews",
      "target": 34962
    },
    {
      "buffer": 0,
      "byteLength": 1655832,
      "byteOffset": 1521476,
      "byteStride": 12,
      "name": "floatBufferViews",
      "target": 34962
    }
  ],
  "buffers": [
    {
      "byteLength": 3177308,
      "uri": "scene.bin"
    }
  ],
  "materials": [
    {
      "doubleSided": true,
      "name": "Material.002",
      "pbrMetallicRoughness": {
        "baseColorFactor": [
          0.258545,
          0.258545,
          0.258545,
          1.0
        ],
        "metallicFactor": 0.0,
        "roughnessFactor": 0.9421875804757317
      }
    },
    {
      "doubleSided": true,
      "name": "Material.003",
      "pbrMetallicRoughness": {
        "baseColorFactor": [
          0.123509,
          0.123509,
          0.123509,
          1.0
        ],
        "metallicFactor": 0.0,
        "roughnessFactor": 0.9723825480166979
      }
    },
    {
      "doubleSided": true,
      "name": "Material.001",
      "pbrMetallicRoughness": {
        "baseColorFactor": [
          0.335388,
          0.0337851,
          0.0618778,
          1.0
        ],
        "metallicFactor": 0.0,
        "roughnessFactor": 0.9776540403767735
      }
    },
    {
      "doubleSided": true,
      "name": "Window_Glass",
      "pbrMetallicRoughness": {
        "baseColorFactor": [
          0.8,
          0.8,
          0.8,
          1.0
        ],
        "metallicFactor": 0.0,
        "roughnessFactor": 0.8040408205773457
      }
    }
  ],
  "meshes": [
    {
      "name": "Portal_Material.002_0",
      "primitives": [
        {
          "attributes": {
            "NORMAL": 1,
            "POSITION": 0,
            "TEXCOORD_0": 2,
            "TEXCOORD_1": 3
          },
          "indices": 4,
          "material": 0,
          "mode": 4
        }
      ]
    },
    {
      "name": "Portal_Material.003_0",
      "primitives": [
        {
          "attributes": {
            "NORMAL": 6,
            "POSITION": 5,
            "TEXCOORD_0": 7,
            "TEXCOORD_1": 8
          },
          "indices": 9,
          "material": 1,
          "mode": 4
        }
      ]
    },
    {
      "name": "Portal_Material.001_0",
      "primitives": [
        {
          "attributes": {
            "NORMAL": 11,
            "POSITION": 10,
            "TEXCOORD_0": 12,
            "TEXCOORD_1": 13
          },
          "indices": 14,
          "material": 2,
          "mode": 4
        }
      ]
    },
    {
      "name": "Portal_Window Glass_0",
      "primitives": [
        {
          "attributes": {
            "NORMAL": 16,
            "POSITION": 15,
            "TEXCOORD_0": 17,
            "TEXCOORD_1": 18
          },
          "indices": 19,
          "material": 3,
          "mode": 4
        }
      ]
    }
  ],
  "nodes": [
    {
      "children": [
        1
      ],
      "matrix": [
        1.0,
        0.0,
        0.0,
        0.0,
        0.0,
        2.220446049250313e-16,
        -1.0,
        0.0,
        0.0,
        1.0,
        2.220446049250313e-16,
        0.0,
        0.0,
        0.0,
        0.0,
        1.0
      ],
      "name": "Sketchfab_model"
    },
    {
      "children": [
        2
      ],
      "matrix": [
        0.009999999776482582,
        0.0,
        0.0,
        0.0,
        0.0,
        0.0,
        0.009999999776482582,
        0.0,
        0.0,
        -0.009999999776482582,
        0.0,
        0.0,
        0.0,
        0.0,
        0.0,
        1.0
      ],
      "name": "bfa3042d69004c97be17492a6b007be0.fbx"
    },
    {
      "children": [
        3
      ],
      "name": "RootNode"
    },
    {
      "children": [
        4,
        5,
        6,
        7
      ],
      "matrix": [
        40.76895397887588,
        3.985577623164411e-06,
        -80.5610255597958,
        -0.0,
        -48.72327615510658,
        1.0643086300971618e-05,
        -24.657047120051498,
        -0.0,
        -2.3944209833246007e-06,
        -15.551101684570003,
        -1.981084037203022e-06,
        -0.0,
        557.9791259765625,
        -35.578121185302734,
        500.1626892089844,
        1.0
      ],
      "name": "Portal"
    },
    {
      "mesh": 0,
      "name": "Portal_Material.002_0"
    },
    {
      "mesh": 1,
      "name": "Portal_Material.003_0"
    },
    {
      "mesh": 2,
      "name": "Portal_Material.001_0"
    },
    {
      "mesh": 3,
      "name": "Portal_Window Glass_0"
    }
  ],
  "scene": 0,
  "scenes": [
    {
      "name": "Sketchfab_Scene",
      "nodes": [
        0
      ]
    }
  ]
}
